<svg xmlns="http://www.w3.org/2000/svg" viewBox="0 0 64 64" width="64" height="64">
  <!-- Fundo verde arredondado -->
  <rect width="64" height="64" rx="12" fill="#1B5E20"/>
  <!-- Faixa azul diagonal sutil -->
  <clipPath id="cc">
    <circle cx="32" cy="32" r="22"/>
  </clipPath>
  <rect x="42" y="0" width="30" height="64" fill="#0D47A1" opacity="0.25" clip-path="url(#cc)"/>
  <!-- Bola branca -->
  <circle cx="32" cy="32" r="22" fill="white"/>
  <!-- Pentágonas pretas -->
  <polygon points="32,19 36,22 34.5,27 29.5,27 28,22" fill="#111"/>
  <polygon points="29.5,27 34.5,27 36,31 32,34 28,31" fill="#111"/>
  <polygon points="28,22 22,23 21,28 25,31 29.5,27" fill="#111"/>
  <polygon points="36,22 42,23 43,28 39,31 34.5,27" fill="#111"/>
  <polygon points="25,31 21,28 18,34 22,39 27,37" fill="#111"/>
  <polygon points="39,31 43,28 46,34 42,39 37,37" fill="#111"/>
  <polygon points="28,31 25,31 27,37 32,38 37,37 39,31 36,31 32,34" fill="#111"/>
  <!-- Estrelinhas amarelas -->
  <text x="32" y="57" text-anchor="middle" font-family="Arial" font-size="8" font-weight="700" fill="#F9A825">★★★</text>
</svg>
